<?xml version="1.0" encoding="UTF-8" standalone="no"?>
<svg
   version="1.1"
   id="svg2"
   xml:space="preserve"
   width="29.321333"
   height="31.323999"
   viewBox="0 0 29.321332 31.324"
   sodipodi:docname="logo.svg"
   inkscape:version="1.1.1 (3bf5ae0d25, 2021-09-20, custom)"
   xmlns:inkscape="http://www.inkscape.org/namespaces/inkscape"
   xmlns:sodipodi="http://sodipodi.sourceforge.net/DTD/sodipodi-0.dtd"
   xmlns="http://www.w3.org/2000/svg"
   xmlns:svg="http://www.w3.org/2000/svg"
   xmlns:rdf="http://www.w3.org/1999/02/22-rdf-syntax-ns#"
   xmlns:cc="http://creativecommons.org/ns#"
   xmlns:dc="http://purl.org/dc/elements/1.1/"><metadata
     id="metadata8"><rdf:RDF><cc:Work
         rdf:about=""><dc:format>image/svg+xml</dc:format><dc:type
           rdf:resource="http://purl.org/dc/dcmitype/StillImage" /></cc:Work></rdf:RDF></metadata><defs
     id="defs6" /><sodipodi:namedview
     pagecolor="#ffffff"
     bordercolor="#666666"
     borderopacity="1"
     objecttolerance="10"
     gridtolerance="10"
     guidetolerance="10"
     inkscape:pageopacity="0"
     inkscape:pageshadow="2"
     inkscape:window-width="1920"
     inkscape:window-height="1008"
     id="namedview4"
     inkscape:pagecheckerboard="0"
     showgrid="false"
     inkscape:zoom="2"
     inkscape:cx="63.5"
     inkscape:cy="-46.25"
     inkscape:window-x="0"
     inkscape:window-y="0"
     inkscape:window-maximized="1"
     inkscape:current-layer="g12"
     fit-margin-top="0"
     fit-margin-left="0"
     fit-margin-right="0"
     fit-margin-bottom="0" /><g
     id="g10"
     inkscape:groupmode="layer"
     inkscape:label="ink_ext_XXXXXX"
     transform="matrix(1.3333333,0,0,-1.3333333,577.85865,567.11867)"><g
       id="g12"
       transform="scale(0.1)"><path
         d="m -4333.94,4151.6701 v -133.21 h 90.41 v 56.19 l -27.16,49.14 c -3.29,6.13 -5.02,13.03 -5.02,19.99 0,2.7 0.25,5.34 0.73,7.89 h -58.96"
         style="fill:#0e003f;fill-opacity:1;fill-rule:evenodd;stroke:none"
         id="path96-3" /><path
         d="m -4123.15,4090.4901 h -91.42 l -8.76,-15.84 v -55.91 c 45.23,3.11 83.42,31.82 100.18,71.75"
         style="fill:#00aaff;fill-opacity:1;fill-rule:evenodd;stroke:none"
         id="path98-6" /><path
         d="m -4223.33,4253.1101 v -68.26 c 18.46,-4.54 32.19,-21.23 32.19,-41.07 0,-6.92 -1.71,-13.79 -4.97,-19.89 v -0.02 c 0,-0.01 -2.99,-5.42 -7.28,-13.18 h 86.64 c 1.78,8.13 2.72,16.57 2.72,25.23 v 0 c 0,62.13 -48.23,112.99 -109.29,117.19"
         style="fill:#0e003f;fill-opacity:1;fill-rule:evenodd;stroke:none"
         id="path100-7" /><path
         d="m -4243.53,4253.3901 h -90.41 v -81.52 h 68.93 c 5.6,6.3 13.05,10.91 21.48,12.98 v 68.54"
         style="fill:#00aaff;fill-opacity:1;fill-rule:evenodd;stroke:none"
         id="path102-5" /></g></g></svg>
